<mxfile host="65bd71144e">
    <diagram id="uoY64QX8t37u8hfydfpz" name="Página-1">
        <mxGraphModel dx="716" dy="564" grid="1" gridSize="10" guides="1" tooltips="1" connect="1" arrows="1" fold="1" page="0" pageScale="1" pageWidth="827" pageHeight="1169" background="#FFFFFF" math="0" shadow="0">
            <root>
                <mxCell id="0"/>
                <mxCell id="1" parent="0"/>
                <mxCell id="18" style="edgeStyle=none;html=1;exitX=0.5;exitY=0.5;exitDx=0;exitDy=0;exitPerimeter=0;entryX=0;entryY=0.5;entryDx=0;entryDy=0;strokeColor=#000000;fontColor=#000000;endArrow=none;endFill=0;" edge="1" parent="1" source="2" target="10">
                    <mxGeometry relative="1" as="geometry"/>
                </mxCell>
                <mxCell id="19" style="edgeStyle=none;html=1;exitX=0.5;exitY=0.5;exitDx=0;exitDy=0;exitPerimeter=0;entryX=0;entryY=0.5;entryDx=0;entryDy=0;strokeColor=#000000;fontColor=#000000;endArrow=none;endFill=0;" edge="1" parent="1" source="2" target="14">
                    <mxGeometry relative="1" as="geometry"/>
                </mxCell>
                <mxCell id="20" style="edgeStyle=none;html=1;exitX=0.5;exitY=0.5;exitDx=0;exitDy=0;exitPerimeter=0;entryX=0;entryY=0.5;entryDx=0;entryDy=0;strokeColor=#000000;fontColor=#000000;endArrow=none;endFill=0;" edge="1" parent="1" source="2" target="17">
                    <mxGeometry relative="1" as="geometry"/>
                </mxCell>
                <mxCell id="21" style="edgeStyle=none;html=1;exitX=0.5;exitY=0.5;exitDx=0;exitDy=0;exitPerimeter=0;entryX=0;entryY=0.5;entryDx=0;entryDy=0;strokeColor=#000000;fontColor=#000000;endArrow=none;endFill=0;" edge="1" parent="1" source="2" target="16">
                    <mxGeometry relative="1" as="geometry"/>
                </mxCell>
                <mxCell id="22" style="edgeStyle=none;html=1;exitX=0.5;exitY=0.5;exitDx=0;exitDy=0;exitPerimeter=0;entryX=0;entryY=0.5;entryDx=0;entryDy=0;strokeColor=#000000;fontColor=#000000;endArrow=none;endFill=0;" edge="1" parent="1" source="2" target="15">
                    <mxGeometry relative="1" as="geometry"/>
                </mxCell>
                <mxCell id="23" style="edgeStyle=none;html=1;exitX=0.5;exitY=0.5;exitDx=0;exitDy=0;exitPerimeter=0;entryX=0;entryY=0.5;entryDx=0;entryDy=0;strokeColor=#000000;fontColor=#000000;endArrow=none;endFill=0;" edge="1" parent="1" source="2" target="12">
                    <mxGeometry relative="1" as="geometry"/>
                </mxCell>
                <mxCell id="24" style="edgeStyle=none;html=1;exitX=0.5;exitY=0.5;exitDx=0;exitDy=0;exitPerimeter=0;entryX=0;entryY=0.5;entryDx=0;entryDy=0;strokeColor=#000000;fontColor=#000000;endArrow=none;endFill=0;" edge="1" parent="1" source="2" target="13">
                    <mxGeometry relative="1" as="geometry"/>
                </mxCell>
                <mxCell id="2" value="ONG" style="shape=umlActor;verticalLabelPosition=bottom;verticalAlign=top;html=1;strokeColor=#000000;fontColor=#000000;" vertex="1" parent="1">
                    <mxGeometry x="80" y="330" width="30" height="60" as="geometry"/>
                </mxCell>
                <mxCell id="27" style="edgeStyle=none;html=1;exitX=0.5;exitY=0.5;exitDx=0;exitDy=0;exitPerimeter=0;labelBackgroundColor=#FFFFFF;strokeColor=#000000;fontColor=#000000;endArrow=none;endFill=0;entryX=1;entryY=0.5;entryDx=0;entryDy=0;" edge="1" parent="1" source="3" target="28">
                    <mxGeometry relative="1" as="geometry">
                        <mxPoint x="640" y="360" as="targetPoint"/>
                    </mxGeometry>
                </mxCell>
                <mxCell id="3" value="&lt;span style=&quot;font-weight: normal;&quot;&gt;Usuário&lt;/span&gt;" style="shape=umlActor;verticalLabelPosition=bottom;verticalAlign=top;html=1;strokeColor=#000000;fontStyle=1;fontColor=#000000;" vertex="1" parent="1">
                    <mxGeometry x="710" y="330" width="30" height="60" as="geometry"/>
                </mxCell>
                <mxCell id="10" value="Cadastrar&lt;br&gt;Artigos" style="ellipse;whiteSpace=wrap;html=1;align=center;fontColor=#000000;fillColor=none;strokeColor=#000000;" vertex="1" parent="1">
                    <mxGeometry x="270" y="120" width="100" height="40" as="geometry"/>
                </mxCell>
                <mxCell id="25" value="&lt;span style=&quot;background-color: rgb(255, 255, 255);&quot;&gt;&amp;lt;&amp;lt; include &amp;gt;&amp;gt;&lt;/span&gt;" style="edgeStyle=none;html=1;exitX=0.5;exitY=0;exitDx=0;exitDy=0;entryX=0;entryY=1;entryDx=0;entryDy=0;strokeColor=#000000;fontColor=#000000;endArrow=block;endFill=0;dashed=1;" edge="1" parent="1" source="12" target="10">
                    <mxGeometry x="-0.0056" relative="1" as="geometry">
                        <Array as="points"/>
                        <mxPoint as="offset"/>
                    </mxGeometry>
                </mxCell>
                <mxCell id="12" value="Cadastrar&lt;br&gt;Nutrição" style="ellipse;whiteSpace=wrap;html=1;align=center;fontColor=#000000;fillColor=none;strokeColor=#000000;" vertex="1" parent="1">
                    <mxGeometry x="200" y="220" width="100" height="40" as="geometry"/>
                </mxCell>
                <mxCell id="26" value="&lt;span style=&quot;background-color: rgb(255, 255, 255);&quot;&gt;&amp;lt;&amp;lt; include &amp;gt;&amp;gt;&lt;/span&gt;" style="edgeStyle=none;html=1;exitX=1;exitY=0.5;exitDx=0;exitDy=0;entryX=1;entryY=1;entryDx=0;entryDy=0;strokeColor=#000000;fontColor=#000000;endArrow=block;endFill=0;dashed=1;" edge="1" parent="1" source="13" target="10">
                    <mxGeometry x="0.6657" y="-4" relative="1" as="geometry">
                        <mxPoint as="offset"/>
                    </mxGeometry>
                </mxCell>
                <mxCell id="13" value="Cadastrar&lt;br&gt;Eventos" style="ellipse;whiteSpace=wrap;html=1;align=center;fontColor=#000000;fillColor=none;strokeColor=#000000;" vertex="1" parent="1">
                    <mxGeometry x="200" y="280" width="100" height="40" as="geometry"/>
                </mxCell>
                <mxCell id="14" value="Cadastrar&lt;br&gt;Galeria" style="ellipse;whiteSpace=wrap;html=1;align=center;fontColor=#000000;fillColor=none;strokeColor=#000000;" vertex="1" parent="1">
                    <mxGeometry x="200" y="340" width="100" height="40" as="geometry"/>
                </mxCell>
                <mxCell id="15" value="Config. Inform. ONG" style="ellipse;whiteSpace=wrap;html=1;align=center;fontColor=#000000;fillColor=none;strokeColor=#000000;" vertex="1" parent="1">
                    <mxGeometry x="200" y="400" width="100" height="40" as="geometry"/>
                </mxCell>
                <mxCell id="16" value="Config. Inform.&lt;br&gt;Doação" style="ellipse;whiteSpace=wrap;html=1;align=center;fontColor=#000000;fillColor=none;strokeColor=#000000;" vertex="1" parent="1">
                    <mxGeometry x="200" y="460" width="100" height="40" as="geometry"/>
                </mxCell>
                <mxCell id="17" value="Cadastra&lt;br&gt;Banners" style="ellipse;whiteSpace=wrap;html=1;align=center;fontColor=#000000;fillColor=none;strokeColor=#000000;" vertex="1" parent="1">
                    <mxGeometry x="200" y="520" width="100" height="40" as="geometry"/>
                </mxCell>
                <mxCell id="30" style="edgeStyle=none;html=1;exitX=1;exitY=0;exitDx=0;exitDy=0;labelBackgroundColor=#FFFFFF;strokeColor=#000000;fontColor=#000000;endArrow=block;endFill=0;dashed=1;entryX=0.5;entryY=1;entryDx=0;entryDy=0;" edge="1" parent="1" source="28" target="38">
                    <mxGeometry relative="1" as="geometry">
                        <mxPoint x="670" y="270" as="targetPoint"/>
                    </mxGeometry>
                </mxCell>
                <mxCell id="31" style="edgeStyle=none;html=1;exitX=1;exitY=1;exitDx=0;exitDy=0;dashed=1;labelBackgroundColor=#FFFFFF;strokeColor=#000000;fontColor=#000000;endArrow=block;endFill=0;entryX=1;entryY=0;entryDx=0;entryDy=0;" edge="1" parent="1" source="28" target="41">
                    <mxGeometry relative="1" as="geometry">
                        <mxPoint x="660" y="460" as="targetPoint"/>
                    </mxGeometry>
                </mxCell>
                <mxCell id="32" style="edgeStyle=none;html=1;exitX=0.5;exitY=1;exitDx=0;exitDy=0;dashed=1;labelBackgroundColor=#FFFFFF;strokeColor=#000000;fontColor=#000000;endArrow=block;endFill=0;entryX=1;entryY=0;entryDx=0;entryDy=0;" edge="1" parent="1" source="28" target="40">
                    <mxGeometry relative="1" as="geometry">
                        <mxPoint x="620" y="470" as="targetPoint"/>
                    </mxGeometry>
                </mxCell>
                <mxCell id="34" style="edgeStyle=none;html=1;exitX=0;exitY=0.5;exitDx=0;exitDy=0;dashed=1;labelBackgroundColor=#FFFFFF;strokeColor=#000000;fontColor=#000000;endArrow=block;endFill=0;entryX=1;entryY=0.5;entryDx=0;entryDy=0;" edge="1" parent="1" source="28" target="39">
                    <mxGeometry relative="1" as="geometry">
                        <mxPoint x="510" y="410" as="targetPoint"/>
                    </mxGeometry>
                </mxCell>
                <mxCell id="35" style="edgeStyle=none;html=1;exitX=0;exitY=0;exitDx=0;exitDy=0;dashed=1;labelBackgroundColor=#FFFFFF;strokeColor=#000000;fontColor=#000000;endArrow=block;endFill=0;entryX=1;entryY=0.5;entryDx=0;entryDy=0;" edge="1" parent="1" source="28" target="42">
                    <mxGeometry relative="1" as="geometry">
                        <mxPoint x="470" y="330" as="targetPoint"/>
                    </mxGeometry>
                </mxCell>
                <mxCell id="36" style="edgeStyle=none;html=1;exitX=0.5;exitY=0;exitDx=0;exitDy=0;dashed=1;labelBackgroundColor=#FFFFFF;strokeColor=#000000;fontColor=#000000;endArrow=block;endFill=0;entryX=0.5;entryY=1;entryDx=0;entryDy=0;" edge="1" parent="1" source="28" target="37">
                    <mxGeometry relative="1" as="geometry">
                        <mxPoint x="530" y="290" as="targetPoint"/>
                    </mxGeometry>
                </mxCell>
                <mxCell id="28" value="Acessa&lt;br&gt;Site" style="ellipse;whiteSpace=wrap;html=1;align=center;fontColor=#000000;fillColor=none;strokeColor=#000000;" vertex="1" parent="1">
                    <mxGeometry x="590" y="340" width="100" height="40" as="geometry"/>
                </mxCell>
                <mxCell id="44" value="&amp;lt;&amp;lt; extend &amp;gt;&amp;gt;" style="edgeStyle=none;html=1;exitX=0;exitY=0.5;exitDx=0;exitDy=0;entryX=1;entryY=0.5;entryDx=0;entryDy=0;dashed=1;labelBackgroundColor=#FFFFFF;strokeColor=#000000;fontColor=#000000;endArrow=block;endFill=0;" edge="1" parent="1" source="37" target="13">
                    <mxGeometry relative="1" as="geometry"/>
                </mxCell>
                <mxCell id="37" value="Visualiza os eventos" style="ellipse;whiteSpace=wrap;html=1;align=center;fontColor=#000000;fillColor=none;strokeColor=#000000;" vertex="1" parent="1">
                    <mxGeometry x="470" y="230" width="100" height="40" as="geometry"/>
                </mxCell>
                <mxCell id="43" value="&amp;lt;&amp;lt; extend &amp;gt;&amp;gt;" style="edgeStyle=none;html=1;exitX=0;exitY=0.5;exitDx=0;exitDy=0;entryX=1;entryY=0.5;entryDx=0;entryDy=0;dashed=1;labelBackgroundColor=#FFFFFF;strokeColor=#000000;fontColor=#000000;endArrow=block;endFill=0;" edge="1" parent="1" source="38" target="12">
                    <mxGeometry relative="1" as="geometry"/>
                </mxCell>
                <mxCell id="38" value="Visualiza a parte&lt;br&gt;de nutrição" style="ellipse;whiteSpace=wrap;html=1;align=center;fontColor=#000000;fillColor=none;strokeColor=#000000;" vertex="1" parent="1">
                    <mxGeometry x="510" y="170" width="130" height="40" as="geometry"/>
                </mxCell>
                <mxCell id="46" value="&amp;lt;&amp;lt; extend &amp;gt;&amp;gt;" style="edgeStyle=none;html=1;exitX=0;exitY=0.5;exitDx=0;exitDy=0;entryX=1;entryY=0.5;entryDx=0;entryDy=0;dashed=1;labelBackgroundColor=#FFFFFF;strokeColor=#000000;fontColor=#000000;endArrow=block;endFill=0;" edge="1" parent="1" source="39" target="15">
                    <mxGeometry relative="1" as="geometry"/>
                </mxCell>
                <mxCell id="39" value="Entra em contato&lt;br&gt;com a ONG" style="ellipse;whiteSpace=wrap;html=1;align=center;fontColor=#000000;fillColor=none;strokeColor=#000000;" vertex="1" parent="1">
                    <mxGeometry x="400" y="360" width="130" height="40" as="geometry"/>
                </mxCell>
                <mxCell id="47" style="edgeStyle=none;html=1;exitX=0;exitY=0.5;exitDx=0;exitDy=0;entryX=1;entryY=0.5;entryDx=0;entryDy=0;dashed=1;labelBackgroundColor=#FFFFFF;strokeColor=#000000;fontColor=#000000;endArrow=block;endFill=0;" edge="1" parent="1" source="40" target="16">
                    <mxGeometry relative="1" as="geometry"/>
                </mxCell>
                <mxCell id="50" value="&lt;span style=&quot;background-color: rgb(255, 255, 255);&quot;&gt;&amp;lt;&amp;lt; extend &amp;gt;&amp;gt;&lt;/span&gt;" style="edgeLabel;html=1;align=center;verticalAlign=middle;resizable=0;points=[];fontColor=#000000;" vertex="1" connectable="0" parent="47">
                    <mxGeometry x="-0.1315" relative="1" as="geometry">
                        <mxPoint as="offset"/>
                    </mxGeometry>
                </mxCell>
                <mxCell id="40" value="Faz uma doação" style="ellipse;whiteSpace=wrap;html=1;align=center;fontColor=#000000;fillColor=none;strokeColor=#000000;" vertex="1" parent="1">
                    <mxGeometry x="470" y="420" width="130" height="40" as="geometry"/>
                </mxCell>
                <mxCell id="48" style="edgeStyle=none;html=1;exitX=0;exitY=0.5;exitDx=0;exitDy=0;entryX=1;entryY=0.5;entryDx=0;entryDy=0;dashed=1;labelBackgroundColor=#FFFFFF;strokeColor=#000000;fontColor=#000000;endArrow=block;endFill=0;" edge="1" parent="1" source="41" target="17">
                    <mxGeometry relative="1" as="geometry"/>
                </mxCell>
                <mxCell id="51" value="&lt;span style=&quot;background-color: rgb(255, 255, 255);&quot;&gt;&amp;lt;&amp;lt; extend &amp;gt;&amp;gt;&lt;/span&gt;" style="edgeLabel;html=1;align=center;verticalAlign=middle;resizable=0;points=[];fontColor=#000000;" vertex="1" connectable="0" parent="48">
                    <mxGeometry x="-0.091" y="1" relative="1" as="geometry">
                        <mxPoint as="offset"/>
                    </mxGeometry>
                </mxCell>
                <mxCell id="41" value="Visualiza e interage com os banners" style="ellipse;whiteSpace=wrap;html=1;align=center;fontColor=#000000;fillColor=none;strokeColor=#000000;" vertex="1" parent="1">
                    <mxGeometry x="485" y="480" width="130" height="40" as="geometry"/>
                </mxCell>
                <mxCell id="45" value="&amp;lt;&amp;lt; extend &amp;gt;&amp;gt;" style="edgeStyle=none;html=1;exitX=0;exitY=0.5;exitDx=0;exitDy=0;entryX=1;entryY=0.5;entryDx=0;entryDy=0;dashed=1;labelBackgroundColor=#FFFFFF;strokeColor=#000000;fontColor=#000000;endArrow=block;endFill=0;" edge="1" parent="1" source="42" target="14">
                    <mxGeometry relative="1" as="geometry"/>
                </mxCell>
                <mxCell id="42" value="Visualiza a&lt;br&gt;galeria" style="ellipse;whiteSpace=wrap;html=1;align=center;fontColor=#000000;fillColor=none;strokeColor=#000000;" vertex="1" parent="1">
                    <mxGeometry x="415" y="290" width="100" height="40" as="geometry"/>
                </mxCell>
            </root>
        </mxGraphModel>
    </diagram>
</mxfile>